<svg width="40" height="37" viewBox="0 0 40 37" fill="none" xmlns="http://www.w3.org/2000/svg">
<path d="M28.9998 0C25.5198 0 22.1798 1.62 19.9998 4.18C17.8198 1.62 14.4798 0 10.9998 0C4.83976 0 -0.000244141 4.84 -0.000244141 11C-0.000244141 18.56 6.79976 24.72 17.0998 34.08L19.9998 36.7L22.8998 34.06C33.1998 24.72 39.9998 18.56 39.9998 11C39.9998 4.84 35.1598 0 28.9998 0ZM20.1998 31.1L19.9998 31.3L19.7998 31.1C10.2798 22.48 3.99976 16.78 3.99976 11C3.99976 7 6.99976 4 10.9998 4C14.0798 4 17.0798 5.98 18.1398 8.72H21.8798C22.9198 5.98 25.9198 4 28.9998 4C32.9998 4 35.9998 7 35.9998 11C35.9998 16.78 29.7198 22.48 20.1998 31.1Z" fill="#002F52"/>
</svg>
